<svg xmlns="http://www.w3.org/2000/svg" viewBox="0 0 84.55 85.33"><defs><style>.cls-1{fill:#538b60;}.cls-2{fill:#2d4546;}</style></defs><g id="Layer_2" data-name="Layer 2"><g id="Layer_1-2" data-name="Layer 1"><circle class="cls-1" cx="41.22" cy="42.41" r="18.63"/><path class="cls-2" d="M32.23,18h0a18,18,0,0,1,18-18h0a18,18,0,0,1-18,18Z"/><path class="cls-2" d="M18.64,29.48h0A18,18,0,0,1,20.85,4.14h0a18,18,0,0,1-2.21,25.34Z"/><path class="cls-2" d="M15.62,47h0A18,18,0,0,1,1,26.18H1A18,18,0,0,1,15.62,47Z"/><path class="cls-2" d="M18.64,29.48h0A18,18,0,0,1,20.85,4.14h0a18,18,0,0,1-2.21,25.34Z"/><path class="cls-2" d="M24.58,62.4h0A18,18,0,0,1,0,55.82H0A18,18,0,0,1,24.58,62.4Z"/><path class="cls-2" d="M24.58,62.4h0A18,18,0,0,1,0,55.82H0A18,18,0,0,1,24.58,62.4Z"/><path class="cls-2" d="M41.32,68.43h0a18,18,0,0,1-23,10.75h0A18,18,0,0,1,41.32,68.43Z"/><path class="cls-2" d="M41.32,68.43h0a18,18,0,0,1-23,10.75h0A18,18,0,0,1,41.32,68.43Z"/><path class="cls-2" d="M58,62.27h0A18,18,0,0,1,47.27,85.33h0A18,18,0,0,1,58,62.27Z"/><path class="cls-2" d="M58,62.27h0A18,18,0,0,1,47.27,85.33h0A18,18,0,0,1,58,62.27Z"/><path class="cls-2" d="M66.87,46.82h0A18,18,0,0,1,73.45,71.4h0a18,18,0,0,1-6.58-24.58Z"/><path class="cls-2" d="M66.87,46.82h0A18,18,0,0,1,73.45,71.4h0a18,18,0,0,1-6.58-24.58Z"/><path class="cls-2" d="M63.71,29.31h0A18,18,0,0,1,84.55,43.9h0A18,18,0,0,1,63.71,29.31Z"/><path class="cls-2" d="M63.71,29.31h0A18,18,0,0,1,84.55,43.9h0A18,18,0,0,1,63.71,29.31Z"/><path class="cls-2" d="M50,17.92h0A18,18,0,0,1,75.37,15.7h0A18,18,0,0,1,50,17.92Z"/></g></g></svg>